<mxfile host="app.diagrams.net" modified="2021-10-01T07:47:34.549Z" agent="5.0 (Windows NT 10.0; Win64; x64) AppleWebKit/537.36 (KHTML, like Gecko) Chrome/94.0.4606.61 Safari/537.36" etag="gUlmevZjWFXjaCLcxu-W" version="15.3.8" type="github">
  <diagram name="Page-1" id="54c02804-9d69-ba3f-8aca-1021b27b8050">
    <mxGraphModel dx="3471" dy="1122" grid="1" gridSize="10" guides="1" tooltips="1" connect="1" arrows="1" fold="1" page="1" pageScale="1" pageWidth="1169" pageHeight="827" background="none" math="0" shadow="0">
      <root>
        <mxCell id="0" />
        <mxCell id="1" parent="0" />
        <mxCell id="7c3a617817c5cf35-11" value="&lt;h1 style=&quot;text-align: left&quot;&gt;&lt;font style=&quot;font-size: 18px&quot;&gt;Product Planning Meeting&lt;/font&gt;&lt;/h1&gt;" style="text;html=1;spacing=5;spacingTop=-20;whiteSpace=wrap;overflow=hidden;strokeWidth=2;fillColor=none;gradientColor=none;fontSize=14;align=center;" parent="1" vertex="1">
          <mxGeometry x="-1010" y="230" width="160" height="80" as="geometry" />
        </mxCell>
        <mxCell id="PU6QvB0Lzl-o8I71-tE7-29" value="Business&lt;br&gt;Understanding" style="shape=step;perimeter=stepPerimeter;whiteSpace=wrap;html=1;fixedSize=1;size=10;fillColor=#10739E;strokeColor=none;fontSize=17;fontColor=#FFFFFF;fontStyle=1;align=center;rounded=0;" parent="1" vertex="1">
          <mxGeometry x="-1040" y="90" width="160" height="70" as="geometry" />
        </mxCell>
        <mxCell id="PU6QvB0Lzl-o8I71-tE7-30" value="Model&lt;br&gt;Selection" style="shape=step;perimeter=stepPerimeter;whiteSpace=wrap;html=1;fixedSize=1;size=10;fillColor=#F2931E;strokeColor=none;fontSize=17;fontColor=#FFFFFF;fontStyle=1;align=center;rounded=0;" parent="1" vertex="1">
          <mxGeometry x="-400" y="90" width="160" height="70" as="geometry" />
        </mxCell>
        <mxCell id="PU6QvB0Lzl-o8I71-tE7-31" value="Build/Train&lt;br&gt;Model" style="shape=step;perimeter=stepPerimeter;whiteSpace=wrap;html=1;fixedSize=1;size=10;fillColor=#AE4132;strokeColor=none;fontSize=17;fontColor=#FFFFFF;fontStyle=1;align=center;rounded=0;" parent="1" vertex="1">
          <mxGeometry x="-80" y="90" width="160" height="70" as="geometry" />
        </mxCell>
        <mxCell id="PU6QvB0Lzl-o8I71-tE7-32" value="Model&lt;br&gt;Deployment" style="shape=step;perimeter=stepPerimeter;whiteSpace=wrap;html=1;fixedSize=1;size=10;fillColor=#23445D;strokeColor=none;fontSize=17;fontColor=#FFFFFF;fontStyle=1;align=center;rounded=0;" parent="1" vertex="1">
          <mxGeometry x="240" y="90" width="160" height="70" as="geometry" />
        </mxCell>
        <mxCell id="PU6QvB0Lzl-o8I71-tE7-33" value="Data&lt;br&gt;Collection" style="shape=step;perimeter=stepPerimeter;whiteSpace=wrap;html=1;fixedSize=1;size=10;fillColor=#12AAB5;strokeColor=none;fontSize=17;fontColor=#FFFFFF;fontStyle=1;align=center;rounded=0;" parent="1" vertex="1">
          <mxGeometry x="-880" y="90" width="160" height="70" as="geometry" />
        </mxCell>
        <mxCell id="PU6QvB0Lzl-o8I71-tE7-49" value="Data&lt;br&gt;Exploration" style="shape=step;perimeter=stepPerimeter;whiteSpace=wrap;html=1;fixedSize=1;size=10;fillColor=#12AAB5;strokeColor=none;fontSize=17;fontColor=#FFFFFF;fontStyle=1;align=center;rounded=0;" parent="1" vertex="1">
          <mxGeometry x="-720" y="90" width="160" height="70" as="geometry" />
        </mxCell>
        <mxCell id="PU6QvB0Lzl-o8I71-tE7-50" value="Data&lt;br&gt;Preparation" style="shape=step;perimeter=stepPerimeter;whiteSpace=wrap;html=1;fixedSize=1;size=10;fillColor=#12AAB5;strokeColor=none;fontSize=17;fontColor=#FFFFFF;fontStyle=1;align=center;rounded=0;" parent="1" vertex="1">
          <mxGeometry x="-560" y="90" width="160" height="70" as="geometry" />
        </mxCell>
        <mxCell id="PU6QvB0Lzl-o8I71-tE7-51" value="Feature&lt;br&gt;Engineering" style="shape=step;perimeter=stepPerimeter;whiteSpace=wrap;html=1;fixedSize=1;size=10;fillColor=#F2931E;strokeColor=none;fontSize=17;fontColor=#FFFFFF;fontStyle=1;align=center;rounded=0;" parent="1" vertex="1">
          <mxGeometry x="-240" y="90" width="160" height="70" as="geometry" />
        </mxCell>
        <mxCell id="PU6QvB0Lzl-o8I71-tE7-52" value="Model&lt;br&gt;Evaluation" style="shape=step;perimeter=stepPerimeter;whiteSpace=wrap;html=1;fixedSize=1;size=10;fillColor=#AE4132;strokeColor=none;fontSize=17;fontColor=#FFFFFF;fontStyle=1;align=center;rounded=0;" parent="1" vertex="1">
          <mxGeometry x="80" y="90" width="160" height="70" as="geometry" />
        </mxCell>
        <mxCell id="PU6QvB0Lzl-o8I71-tE7-53" value="" style="strokeWidth=2;html=1;shape=mxgraph.flowchart.annotation_2;align=left;labelPosition=right;pointerEvents=1;rotation=90;" parent="1" vertex="1">
          <mxGeometry x="-740" y="-240" width="30" height="620" as="geometry" />
        </mxCell>
        <mxCell id="PU6QvB0Lzl-o8I71-tE7-54" value="" style="strokeWidth=2;html=1;shape=mxgraph.flowchart.annotation_2;align=left;labelPosition=right;pointerEvents=1;rotation=90;" parent="1" vertex="1">
          <mxGeometry x="-260" y="-80" width="30" height="300" as="geometry" />
        </mxCell>
        <mxCell id="PU6QvB0Lzl-o8I71-tE7-55" value="" style="strokeWidth=2;html=1;shape=mxgraph.flowchart.annotation_2;align=left;labelPosition=right;pointerEvents=1;rotation=90;" parent="1" vertex="1">
          <mxGeometry x="140" y="-160" width="30" height="460" as="geometry" />
        </mxCell>
        <mxCell id="PU6QvB0Lzl-o8I71-tE7-56" value="&lt;font style=&quot;font-size: 18px&quot;&gt;Prediction Engineering&lt;/font&gt;" style="text;strokeColor=none;fillColor=none;html=1;fontSize=24;fontStyle=1;verticalAlign=middle;align=center;" parent="1" vertex="1">
          <mxGeometry x="-775" y="20" width="100" height="30" as="geometry" />
        </mxCell>
        <mxCell id="PU6QvB0Lzl-o8I71-tE7-58" value="&lt;font style=&quot;font-size: 18px&quot;&gt;Feature Engineering&lt;/font&gt;" style="text;strokeColor=none;fillColor=none;html=1;fontSize=24;fontStyle=1;verticalAlign=middle;align=center;" parent="1" vertex="1">
          <mxGeometry x="-295" y="20" width="100" height="30" as="geometry" />
        </mxCell>
        <mxCell id="PU6QvB0Lzl-o8I71-tE7-59" value="&lt;font style=&quot;font-size: 18px&quot;&gt;Modelling&lt;/font&gt;" style="text;strokeColor=none;fillColor=none;html=1;fontSize=24;fontStyle=1;verticalAlign=middle;align=center;" parent="1" vertex="1">
          <mxGeometry x="103" y="20" width="100" height="30" as="geometry" />
        </mxCell>
        <mxCell id="PU6QvB0Lzl-o8I71-tE7-61" value="" style="sketch=0;pointerEvents=1;shadow=0;dashed=0;html=1;strokeColor=none;fillColor=#434445;aspect=fixed;labelPosition=center;verticalLabelPosition=bottom;verticalAlign=top;align=center;outlineConnect=0;shape=mxgraph.vvd.user_group;" parent="1" vertex="1">
          <mxGeometry x="-1050" y="240" width="35.5" height="50" as="geometry" />
        </mxCell>
        <mxCell id="PU6QvB0Lzl-o8I71-tE7-63" value="" style="sketch=0;pointerEvents=1;shadow=0;dashed=0;html=1;strokeColor=none;fillColor=#434445;aspect=fixed;labelPosition=center;verticalLabelPosition=bottom;verticalAlign=top;align=center;outlineConnect=0;shape=mxgraph.vvd.networking;" parent="1" vertex="1">
          <mxGeometry x="-841.75" y="240" width="50" height="50" as="geometry" />
        </mxCell>
        <mxCell id="PU6QvB0Lzl-o8I71-tE7-66" value="&lt;h1&gt;&lt;font style=&quot;font-size: 18px&quot;&gt;Web Scraping &amp;amp; HTML Parsing from UNGC&lt;/font&gt;&lt;/h1&gt;" style="text;html=1;spacing=5;spacingTop=-20;whiteSpace=wrap;overflow=hidden;strokeWidth=2;fillColor=none;gradientColor=none;fontSize=14;align=left;" parent="1" vertex="1">
          <mxGeometry x="-781.75" y="230" width="180" height="130" as="geometry" />
        </mxCell>
        <mxCell id="PU6QvB0Lzl-o8I71-tE7-68" value="" style="sketch=0;pointerEvents=1;shadow=0;dashed=0;html=1;strokeColor=none;fillColor=#434445;aspect=fixed;labelPosition=center;verticalLabelPosition=bottom;verticalAlign=top;align=center;outlineConnect=0;shape=mxgraph.vvd.log_files;" parent="1" vertex="1">
          <mxGeometry x="-581.75" y="240" width="40" height="50" as="geometry" />
        </mxCell>
        <mxCell id="PU6QvB0Lzl-o8I71-tE7-69" value="&lt;h1&gt;&lt;font style=&quot;font-size: 18px&quot;&gt;PDF Extraction &amp;amp; &lt;br&gt;Text Preprocessing&lt;/font&gt;&lt;/h1&gt;&lt;p&gt;&lt;i&gt;Reference&lt;/i&gt;&lt;span&gt;:&lt;/span&gt;&lt;br&gt;&lt;/p&gt;&lt;p&gt;3_text_processing.ipynb&lt;/p&gt;&lt;p&gt;&lt;br&gt;&lt;/p&gt;" style="text;html=1;spacing=5;spacingTop=-20;whiteSpace=wrap;overflow=hidden;strokeWidth=2;fillColor=none;gradientColor=none;fontSize=14;align=left;" parent="1" vertex="1">
          <mxGeometry x="-531.75" y="230" width="180" height="190" as="geometry" />
        </mxCell>
        <mxCell id="PU6QvB0Lzl-o8I71-tE7-71" value="&lt;h1&gt;&lt;span style=&quot;font-size: 18px&quot;&gt;NLP Model of Named Entity Recognition&amp;nbsp;&lt;/span&gt;&lt;/h1&gt;&lt;p&gt;&lt;i&gt;Reference&lt;/i&gt;:&lt;/p&gt;&lt;p&gt;5_spacy_model_pipeline.py&lt;/p&gt;&lt;p&gt;&lt;br&gt;&lt;/p&gt;" style="text;html=1;spacing=5;spacingTop=-20;whiteSpace=wrap;overflow=hidden;strokeWidth=2;fillColor=none;gradientColor=none;fontSize=14;align=left;" parent="1" vertex="1">
          <mxGeometry x="-70" y="230" width="200" height="190" as="geometry" />
        </mxCell>
        <mxCell id="PU6QvB0Lzl-o8I71-tE7-72" value="&lt;h1&gt;&lt;span style=&quot;font-size: 18px&quot;&gt;NLP Metrics of &lt;br&gt;Cosine Similarity&amp;nbsp;&lt;/span&gt;&lt;/h1&gt;&lt;p&gt;&lt;i&gt;Reference&lt;/i&gt;:&lt;/p&gt;&lt;p&gt;4_rank_text_content.ipynb&lt;/p&gt;&lt;p&gt;&lt;br&gt;&lt;/p&gt;" style="text;html=1;spacing=5;spacingTop=-20;whiteSpace=wrap;overflow=hidden;strokeWidth=2;fillColor=none;gradientColor=none;fontSize=14;align=left;" parent="1" vertex="1">
          <mxGeometry x="-291.75" y="230" width="200" height="190" as="geometry" />
        </mxCell>
        <mxCell id="PU6QvB0Lzl-o8I71-tE7-73" value="" style="sketch=0;pointerEvents=1;shadow=0;dashed=0;html=1;strokeColor=none;fillColor=#434445;aspect=fixed;labelPosition=center;verticalLabelPosition=bottom;verticalAlign=top;align=center;outlineConnect=0;shape=mxgraph.vvd.nsx;" parent="1" vertex="1">
          <mxGeometry x="-351.75" y="245.75" width="50" height="38.5" as="geometry" />
        </mxCell>
        <mxCell id="PU6QvB0Lzl-o8I71-tE7-74" value="" style="sketch=0;pointerEvents=1;shadow=0;dashed=0;html=1;strokeColor=none;fillColor=#434445;aspect=fixed;labelPosition=center;verticalLabelPosition=bottom;verticalAlign=top;align=center;outlineConnect=0;shape=mxgraph.vvd.nsx;" parent="1" vertex="1">
          <mxGeometry x="-130" y="245.75" width="50" height="38.5" as="geometry" />
        </mxCell>
        <mxCell id="PU6QvB0Lzl-o8I71-tE7-76" value="&lt;p style=&quot;color: rgb(0 , 0 , 0) ; font-family: &amp;#34;helvetica&amp;#34; ; font-size: 14px ; font-style: normal ; font-weight: 400 ; letter-spacing: normal ; text-align: left ; text-indent: 0px ; text-transform: none ; word-spacing: 0px ; background-color: rgb(248 , 249 , 250)&quot;&gt;&lt;i&gt;Reference&lt;/i&gt;:&lt;br&gt;&lt;/p&gt;&lt;p style=&quot;color: rgb(0 , 0 , 0) ; font-family: &amp;#34;helvetica&amp;#34; ; font-size: 14px ; font-style: normal ; font-weight: 400 ; letter-spacing: normal ; text-align: left ; text-indent: 0px ; text-transform: none ; word-spacing: 0px ; background-color: rgb(248 , 249 , 250)&quot;&gt;1_data_coolection_text_extraction.ipynb&lt;/p&gt;&lt;p style=&quot;color: rgb(0 , 0 , 0) ; font-family: &amp;#34;helvetica&amp;#34; ; font-size: 14px ; font-style: normal ; font-weight: 400 ; letter-spacing: normal ; text-align: left ; text-indent: 0px ; text-transform: none ; word-spacing: 0px ; background-color: rgb(248 , 249 , 250)&quot;&gt;2_dataframe.ipynb&lt;/p&gt;" style="text;whiteSpace=wrap;html=1;" parent="1" vertex="1">
          <mxGeometry x="-831.75" y="320" width="200" height="110" as="geometry" />
        </mxCell>
        <mxCell id="PU6QvB0Lzl-o8I71-tE7-77" value="" style="sketch=0;pointerEvents=1;shadow=0;dashed=0;html=1;strokeColor=none;fillColor=#434445;aspect=fixed;labelPosition=center;verticalLabelPosition=bottom;verticalAlign=top;align=center;outlineConnect=0;shape=mxgraph.vvd.nsx_dashboard;" parent="1" vertex="1">
          <mxGeometry x="140" y="245.75" width="50" height="46.5" as="geometry" />
        </mxCell>
        <mxCell id="PU6QvB0Lzl-o8I71-tE7-78" value="&lt;h1&gt;&lt;span style=&quot;font-size: 18px&quot;&gt;Interactive Visualization with BI Tool&lt;/span&gt;&lt;/h1&gt;&lt;div&gt;&lt;font style=&quot;font-size: 14px&quot;&gt;&lt;i&gt;Reference&lt;/i&gt;:&lt;br&gt;&lt;br&gt;&lt;/font&gt;&lt;/div&gt;&lt;div&gt;&lt;font style=&quot;font-size: 14px&quot;&gt;http://bit.ly/CBi-DM-Dashboard&lt;/font&gt;&lt;br&gt;&lt;/div&gt;" style="text;html=1;spacing=5;spacingTop=-20;whiteSpace=wrap;overflow=hidden;strokeWidth=2;fillColor=none;gradientColor=none;fontSize=14;align=left;" parent="1" vertex="1">
          <mxGeometry x="207" y="224" width="216.5" height="190" as="geometry" />
        </mxCell>
      </root>
    </mxGraphModel>
  </diagram>
</mxfile>
